<?xml version="1.0" encoding="utf-8"?>
<!-- Generator: Adobe Illustrator 25.0.0, SVG Export Plug-In . SVG Version: 6.00 Build 0)  -->
<svg version="1.1" id="Layer_1" xmlns="http://www.w3.org/2000/svg" xmlns:xlink="http://www.w3.org/1999/xlink" x="0px" y="0px"
	 viewBox="0 0 1920 1920" style="enable-background:new 0 0 1920 1920;" xml:space="preserve">
<style type="text/css">
	.st0{fill:url(#SVGID_1_);}
	.st1{fill:url(#SVGID_2_);}
	.st2{fill:url(#SVGID_3_);}
	.st3{fill:url(#SVGID_4_);}
	.st4{fill:url(#SVGID_5_);}
	.st5{fill:url(#SVGID_6_);}
	.st6{fill:url(#SVGID_7_);}
	.st7{fill:url(#SVGID_8_);}
	.st8{fill:url(#SVGID_9_);}
	.st9{fill:url(#SVGID_10_);}
	.st10{fill:url(#SVGID_11_);}
	.st11{fill:url(#SVGID_12_);}
	.st12{fill:url(#SVGID_13_);}
	.st13{fill:url(#SVGID_14_);}
	.st14{fill:url(#SVGID_15_);}
	.st15{fill:url(#SVGID_16_);}
	.st16{fill:url(#SVGID_17_);}
	.st17{fill:url(#SVGID_18_);}
	.st18{fill:url(#SVGID_19_);}
	.st19{fill:url(#SVGID_20_);}
	.st20{fill:url(#SVGID_21_);}
	.st21{fill:url(#SVGID_22_);}
</style>
<g>
	<g>
		<path d="M886.7,1143.2c-2.3,7.8-2.7,14.2-2.8,20.8c-0.1,5-2.4,6.5-6.8,3.7c-16.4-10.7-32.8-21.6-49.2-32.3
			c-3.6-2.4-4.5-5.9-4.5-9.9c0-54.9-0.1-109.8-0.2-164.7c0-6,2.9-9.7,7.6-12.5c14.9-9.1,29.7-18.4,44.6-27.5c7-4.3,9.7-2.7,10.1,5.7
			c1,21.8-1.7,43.6-1.4,65.5c0.1,4.7-1.9,11.5,3.1,13.2c3.4,1.2,5.8-5.5,8.3-8.9c10.6-13.9,20.8-28,31.3-42
			c3.4-4.6,4.8-9.5,4.8-15.2c-0.1-65.3-0.2-130.5-0.1-195.8c0-6.8-2-12-6.8-16.8c-6-5.9-11.3-12.5-17.2-18.6c-8-8.4-13.8-8.7-21,0.2
			c-10.4,12.9-27,8.7-34.1,1.6c-8.9-8.9-8.1-26.5,1.2-34c11.4-9.2,28.3-6.8,35.7,5.5c3.3,5.6,6.7,9.5,13.7,9.4
			c3.8,0,7.1,2.1,9.8,5.2c5,5.7,9.8,12,15.8,16.6c12.7,9.7,16.2,22.8,15.7,37.5c-1.6,54.8-1.2,109.7-1.5,164.6
			c0,2.2-0.5,4.3-0.7,6.5c-0.4,2.9-1.8,6.6,1.4,8.2c3.9,2,5.9-2.1,7.7-4.4c7.6-9.6,14.9-19.5,22.3-29.2
			c31.8-41.9,63.7-83.8,95.4-125.8c5.9-7.8,11.7-15.8,16.9-24.1c3.8-6,8.7-8.2,15.7-8.2c32.2,0.2,64.4,0.2,96.7,0
			c17.2-0.1,34.3-1,51.5-1.3c3.4-0.1,7.7-1.2,9.7,2.7c1.9,3.7-1.9,5.8-3.8,8.3c-38.6,53.5-80.8,104.4-119.1,158.3
			c-1.8,2.5-5.4,5-3.5,8.5c1.8,3.4,5.9,2.4,9,2.2c24-1.7,48-0.2,71.9,0.5c16.4,0.5,28.4-4.9,38.5-16.9c2.1-2.5,4.2-5.1,6.8-7.1
			c8.4-6.8,12.4-14.8,11.6-26.2c-0.9-11.8,10.9-22.1,22.8-22c12.4,0.1,22.7,10.6,22.8,23.3c0.1,13.2-8.6,22.9-21.7,22.2
			c-10.7-0.5-18.9,2.1-25.9,10.4c-5.2,6.2-12.3,10.9-17.5,17.2c-6.8,8.1-14.9,10.5-25.2,10.3c-32.2-0.5-64.4,0-96.7-0.3
			c-7,0-11.9,2.2-16,7.8c-7.8,10.8-16.1,21.4-24.1,32.1c-1.2,1.7-3.3,3.5-2.3,5.8c1.2,2.8,4.3,2,6.6,1.9c32.2-0.4,64.4-1,96.6-1.4
			c4.9-0.1,8.3-2.2,10.9-6c2.3-3.4,4.9-6.6,8.4-8.9c2.4-1.6,5.2-2,7.7-0.2c2.6,1.9,2.4,4.7,1.5,7.4c-3.1,9.8-18.2,21-28.7,20.5
			c-32.7-1.6-65.5-1.1-98.2-1.7c-11-0.2-18.2,3.2-24.5,12.5c-9.8,14.7-21.2,28.4-31.8,42.6c-1.5,2-4.6,4-2.8,7
			c1.6,2.8,4.9,2.1,7.5,1.9c35.7-2.9,71.4,1.5,107.1,0.1c6.3-0.2,10.6-2,14.2-7.6c5.6-8.6,18.9-11.9,28.7-8.1
			c7.2,2.8,14.9,15.1,13.9,22.5c-1.4,11.3-10.2,20.9-21.2,22c-8.9,0.9-16.1-3.6-20.9-10.6c-3.8-5.5-8.4-6.9-14.6-6.9
			c-26.8,0.2-53.5,0.2-80.3,0c-12.3-0.1-24.5-1.3-36.8-1.4c-14.6-0.2-21.6,11.3-14.8,23.9c20.7,38.1,41.6,76.1,62.5,114.1
			c1.2,2.3,2,5.7,5.3,5.5c2.9-0.2,3-3.5,4.1-5.6c15.7-29.9,31.5-59.9,47.2-89.8c2.6-5,6.5-7.2,11.9-7.2c20.5,0,41,0,61.4-0.1
			c5.6,0,9,2.6,11.5,7.5c9.5,19,19.3,37.9,29,56.8c0.8,1.5,1.1,4.3,3.7,3.4c2.1-0.7,1.7-3.3,1.6-5.1c-0.4-9.3-1.3-18.5-1.4-27.8
			c-0.2-28.7,0.1-57.3-0.2-86c-0.1-7.4,2.4-13.2,7.8-18c3.6-3.3,6.6-7.3,10.4-10.4c9.5-7.9,15-16.5,13.3-30.1
			c-1.6-12.3,9.6-21.5,22.7-21.3c11.9,0.1,22.6,10.8,22.8,22.5c0.1,12.2-9.1,21.9-21.8,21.4c-9.6-0.4-17.1,1.7-22.2,10.3
			c-1.2,2-3.3,3.8-5.3,5.1c-14.3,8.9-16,22.9-15.5,37.9c1.2,34.1,2.3,68.2-0.7,102.2c-0.9,9.8,0,19,3.6,28.1c1,2.7,0.9,6.6,4.7,6.9
			c3.6,0.3,4.7-3.3,5.9-5.9c6.9-14.2,13.6-28.6,20.7-42.8c15.9-31.7,32-63.3,47.9-95c3.4-6.8,9.6-7.3,16.1-7.3
			c37.1,0,74.3,0,111.4-0.1c2.7,0,5.5-0.1,8.2,0.1c6.9,0.5,8.5,2.9,5.5,8.8c-18.6,36.2-37.3,72.3-55.8,108.4
			c-19.5,38.1-38.9,76.3-58.3,114.5c-8.9,17.5-17.8,35-26.6,52.6c-1,2-3.6,4.6-1.2,6.6c2.1,1.7,4.6-0.8,6.5-2.1
			c40.4-27,82.4-51.4,123.5-77.3c6.7-4.2,9.6-9.2,9.5-17.3c-0.4-25.9-0.6-51.8,1.3-77.7c0.3-4.5,1-8.6,4.3-12
			c1.5-1.5,3.1-3.4,3.7-5.3c3.9-12.5,13.5-19,24.1-25.2c36.5-21.4,72.5-43.4,108.9-65c8.6-5.1,11.8-3.1,11.3,7.1
			c-3.1,58.7,0,117.4-1.8,176c-0.8,26.7-0.9,53.5-1.2,80.2c-0.1,5.3-1.7,9.3-6.4,12.2c-31,19.3-61.9,39-92.9,58.3
			c-50,31.1-100.1,62.1-150.3,93.1c-46.2,28.5-92.5,56.9-138.8,85.2c-5.6,3.4-11.4,6.4-17.2,9.5c-3.6,2-6.5,1.9-8.7-2.4
			c-6.7-12.7-13.4-16.7-24.7-15.3c-12.6,1.6-22.6,10.3-25.9,23.1c-1.8,7.2-3,14.5-1.4,21.9c1.4,6.3-1,10.4-6.2,13.7
			c-40.8,26.4-82.5,51.2-123.9,76.7c-7.7,4.7-15.3,9.4-23.1,14c-8,4.7-11.2,3.1-11.3-5.8c-0.1-48.3,0-96.7,0-145
			c0-6.7,2.7-11.1,8.5-14.6c51.2-30.8,101.5-63,153-93.4c31-18.3,61-38.2,91.5-57.3c0.5-0.3,0.9-0.6,1.4-0.9
			c2.7-2.2,7.5-4.3,6.8-7.5c-1-4.1-6.1-1.9-9.3-2c-8.4-0.4-14.3-3.8-18.2-11.6c-3.6-7.3-8-14.3-12.2-21.3c-2.3-3.9-5.4-6-8.7-1
			c-7.6,11.6-18.3,20.2-27.8,29.9c-23.6,24.2-47.3,48.3-71,72.4c-3.5,3.6-7.8,5-12.5,5.2c-5.2,0.2-10.4,0.4-15.6,0.1
			c-10.4-0.7-19,0.7-26.6,9.8c-8.6,10.2-23.4,8.2-32.4-2.2c-7-8.1-4.7-24,4.6-31.5c9.1-7.3,24.3-5.2,31,5c3.8,5.8,8.5,6.8,14.8,7.9
			c20.7,3.4,34.7-4.5,48.7-19.8c24.5-26.7,49.6-53,74.9-79c11.5-11.8,11.7-11.7,3.7-26.4c-8.1-14.8-16.4-29.6-24.6-44.3
			c-3.6-6.4-5.7-6.7-9.2,0c-8.2,15.7-15.8,31.7-23.9,47.5c-8.5,16.5-17.3,32.8-25.9,49.3c-2.9,5.5-7.9,6.6-13.2,6.6
			c-23.2-0.3-46.4-0.9-69.5-1.4c-4-0.1-6.6-2.2-8.6-5.4c-19.2-30.8-38.4-61.6-57.7-92.3c-8.6-13.6-17.3-27.2-26.1-40.7
			c-1.1-1.7-2.2-4.4-4.8-3.6c-2.7,0.9-1.7,3.7-1.5,5.8c3.2,47.2,0.6,94.4,1.4,141.6c0.1,5-2,9-5.5,12.3
			c-9.9,9.4-19.8,18.8-29.7,28.1c-1.8,1.7-4,3.3-6.5,3c-7.8-0.8-12.2,3.2-16.5,9.3c-8,11.4-22.8,11.9-33.7,2.1
			c-8.3-7.5-8.6-21-0.6-29.3c10.1-10.4,23.5-10.3,33,0.3c10.1,11.3,15.9,11.2,26.1-0.3c4.2-4.7,7.9-9.9,12.6-13.9
			c9.6-8.1,11.7-18.1,11.1-30c-1-19.1-1.8-38.2-1.5-57.2c0.4-18.5-0.3-37-0.2-55.5c0-3.3-0.6-6.8,0.5-9.8c5.5-14.8,1.2-27.5-7-40.1
			c-12.2-18.7-23.7-38-35.6-56.9C891.3,1148.2,889.3,1146.3,886.7,1143.2z M892,1076.8c-0.9,9,1.8,18.2,7.8,26.5
			c12.5,17.3,28.3,27.8,50.6,25.7c5-0.5,9.2,0.2,12.5,5.4c17.4,27.4,35,54.7,52.9,81.7c6.8,10.2,12.5,19.6,9.3,33.1
			c-2.3,9.7,4.6,18.2,14.4,22.3c7.6,3.2,14.7,0.9,22.1-6.3c6.2-6.2,7.2-13.5,4.7-21.2c-3-8.9-10.4-13.8-19.2-14.3
			c-7.9-0.5-12.2-3.9-16.2-10.2c-18.5-29.3-37.2-58.4-56.2-87.4c-4.2-6.4-4.3-10.4,2.3-15.7c24.8-19.9,24-62.9-0.9-82.2
			c-15.8-12.2-15.8-12.2-2.8-28c0.9-1,2-2,2.7-3.1c5.6-9.3,13-14,24.7-13.8c12.4,0.3,21.1-11.3,18.5-23.7c-1.9-9.2,1-15.9,6.3-22.6
			c27.1-34.2,54.1-68.5,81.1-102.7c4.4-5.5,9-9.4,17.3-8.4c9.8,1.2,18.4-5.4,22.1-14.9c3.3-8.3,0.7-18.6-6.4-24.5
			c-7.7-6.4-16.5-7.6-25.3-3.3c-8,3.9-11.7,11-11,20.2c0.5,6.9,1.6,13.2-3.5,20c-27.7,36.9-57,72.4-85.3,108.8
			c-4.2,5.4-9.3,7.4-16.3,7.4c-17.4-0.1-26.2,10.5-23.4,27.6c1,5.7,0.2,10.4-3.1,15.4c-5.3,8-11.8,15-17,23
			c-4.8,7.4-11.2,10.9-19.9,12.5C907.6,1029,892,1048,892,1076.8z"/>
		<path d="M834.6,319.9c-0.7-17.2-7.6-30.1-19.7-40.2c-2.3-1.9-4.8-3.6-7.2-5.4c-6.7-5.1-6.8-6.7,0.3-11.1
			c31.9-19.4,64-38.6,95.9-58c27.5-16.7,55-33.5,82.3-50.6c5.9-3.7,10.4-3.9,16.4-0.2c48.2,29.9,96.7,59.4,145,89.1
			c7,4.3,13.8,8.8,20.6,13.4c10,6.8,10.4,17,0.3,24c-10.8,7.4-22.2,13.9-33.4,20.7c-32.3,19.8-64.7,39.5-97.1,59.4
			c-56.8,34.8-113.5,69.6-170.2,104.4c-34.4,21.1-68.9,42.1-103.3,63.2c-34.9,21.4-69.7,42.8-104.6,64.2s-69.6,43-104.9,63.7
			c-6.2,3.6-10.8,3.3-16.5-0.2c-25.9-16.2-52-32.1-77.9-48.2c-32-19.8-63.9-39.8-95.9-59.6c-9.5-5.9-9.3-8.8,0.3-14.6
			c38.6-23.2,77-46.5,115.5-70c38.4-23.4,76.9-46.9,115.2-70.4c20.9-12.8,41.8-25.7,62.5-38.9c17.3-11,25.9-10.9,42,1.8
			c15.9,12.6,33.3,22,54,23.1c29.1,1.6,53.8-7.4,71.5-31.5C832.2,339.5,833.3,328.9,834.6,319.9z"/>
		<path d="M1234.6,93.2c0.7,16.3-8.8,25.9-22,32.4c-5.9,2.9-7.7,6.5-7.6,12.7c0.2,51.9,0,103.8,0.1,155.6c0,8.5-0.7,16.9-1.3,25.3
			c-0.6,7.7,2.7,9.7,9.4,5.8c9.2-5.4,18.4-10.8,27-17c6.8-4.9,11.6-5,18.8,0.1c16.3,11.4,33.7,21.3,50.5,31.9
			c14.3,9,28.7,18,42.8,27.2c7.2,4.7,7.3,7.1,0,11.7c-30.8,19.1-61.9,38-92.8,57.1c-24.4,15.1-48.5,30.5-72.9,45.5
			c-18.1,11.2-36.4,22-54.7,33c-10,6-20.2,12-30.1,18.2c-5.1,3.2-7.1,6.6-0.5,10.9c11.9,7.7,23.5,15.9,35.5,23.5
			c7.4,4.8,7.8,8.3,0.4,13.2c-33.4,21.7-67,43.1-100.5,64.7c-9.2,5.9-18.6,11.5-27.3,18c-8.2,6.2-15.3,6-23.8,0.5
			c-20.5-13.4-41.4-26.4-62.2-39.3c-28.3-17.5-56.7-34.9-85-52.2c-7.9-4.8-8.2-8.3,0-13.4c32.4-20.2,64.9-40.2,97.4-60.3
			c28.8-17.8,57.5-35.7,86.3-53.4c32.6-19.9,65.2-39.7,97.5-60.2c21.4-13.6,43-26.9,64.1-40.9c4.5-3,7.6-5.7,4.5-11.9
			c-1.4-2.9-1-7-1-10.5c0-60.3,0-120.7,0.2-181c0-7.1-1.3-11.9-8.3-15.9c-16.4-9.5-22.5-27.5-16.7-45.4
			c4.9-15.1,20.3-25.4,36.8-24.5C1218.9,55.3,1234.7,72.6,1234.6,93.2z"/>
		<path d="M685.7,1086.8c0,12.3,0.4,24.6-0.1,36.8c-0.3,8.2,1.7,14.1,8.4,19.8c12.5,10.4,10.4,27.7-3.2,35.6
			c-10.5,6.1-24.9,2.2-31.5-8.5c-6-9.7-2.7-22.8,8.1-28.9c5.3-3,7-6.7,7-12.5c-0.2-28.9,0-57.9-0.2-86.8c0-6.5,1.8-11.4,6.6-15.9
			c18.9-17.7,37.5-35.8,56.4-53.5c3.1-2.9,4.2-6.1,4.2-10.1c0.1-14.2,0.3-28.3,0.3-42.5c0-2.9,0.7-5.4,2.5-7.6
			c8.7-10.5,17.6-20.9,26.1-31.5c4.9-6.1,10.7-8.3,18.5-7.9c11.1,0.5,19-5.1,22.2-14.5c3.2-9.4-0.1-20-8.4-26.3
			c-7.4-5.6-15.3-6.7-23.8-2.4c-8.5,4.4-12.9,11.9-11,20.9c2.4,10.8-1.3,18.2-8.3,25.6c-9.5,10.1-18.4,20.9-27.4,31.4
			c-3.5,4-6.8,4.3-11.4,1.4c-28.3-18-23.2-8.3-23.6-41c-0.2-20.8,0.2-41.5-0.1-62.2c-0.1-7.3,2.4-12.2,8.6-16.2
			c25.6-16.7,51.7-32.6,77.8-48.5c4.5-2.8,8.6-2.7,13,0c25.9,15.7,51.8,31.3,77.7,47c4,2.4,5.9,5.9,6.7,10.6
			c1.4,8.4,1.9,16.9,1,25.3c-2.1,19.4-1.3,38.7-1,58.1c0.1,9.3-2.7,15.3-10.8,20.1c-19.2,11.3-38.2,23.1-56.9,35.5
			c-6.4,4.2-8.9,9-7.4,16.4c0.8,4,1,8.1,1,12.2c0,48,0,96.1,0,144.2c0,7.4-0.2,14.8-2.2,21.9c-1.9,6.6,0.2,11.1,5.8,14.5
			c10.4,6.5,20.9,12.9,31.1,19.7c9.1,6.1,9,7.5,2.5,15.9c-7,9.1-13.8,18.3-20.5,27.6c-4.5,6.3-9.4,10.4-18,10.6
			c-15.2,0.4-23.7,11.8-21.3,26.7c2,12.4,14.5,20.5,26.9,17.4c13.4-3.3,21.2-16.6,16.8-29.5c-1.8-5.3-1.1-9.5,2.1-13.8
			c9-12,18-24,26.8-36.1c3.1-4.3,6.8-5.2,11.3-2.6c7.6,4.3,15.1,8.7,22.6,13.2c3.6,2.2,4.4,6,4.4,10c0,27.6-0.1,55.2,0,82.7
			c0,6.2-2.9,10.3-7.9,13.3c-24.8,14.9-49.6,29.7-74.3,44.6c-4.4,2.7-8.4,2.9-13,0.2c-25.6-15.1-51.3-29.9-77-44.9
			c-4.4-2.6-6.3-6.4-6.4-11.5c-0.8-26.7-1.8-53.4-1.6-80.2c0-8.2,3.2-13,10.3-16.8c22.9-12.3,43.8-27.6,65.9-41.3
			c4.5-2.8,6.4-6.7,5.8-11.7c-4.3-40.5,0.1-81.2-2.8-121.9c-1.3-18.4,0.5-37.1,1.2-55.6c0.3-7.1-1.7-11.2-8.9-14.3
			c-8.6-3.8-16.2-10.1-24.3-15.1c-2.2-1.4-4.8-3.6-7.5-1.8c-2.8,1.9-1.2,4.9-1,7.6c0.9,18.5,1.2,37.1-0.2,55.6
			c-1.2,15.3-0.6,30.6-0.5,45.8c0,4.5,2.5,7.5,6,10.1c8.5,6.3,10.5,15.3,7.8,24.9c-2.4,8.5-9,13.5-17.8,14.9
			c-10.7,1.7-17.8-4.1-23.2-12.1c-5.2-7.6-2.2-20.4,7.1-26.8c7.1-4.9,8.8-10.9,8.6-18.8c-0.4-13.4-0.1-26.8-0.2-40.1
			c0-2.3,0.7-5.4-2.3-6.3c-2.4-0.7-3.8,1.8-5.3,3.3c-14.7,14.3-29.2,28.7-43.9,42.9c-3.5,3.4-4,7.5-4,12
			C685.8,1058.9,685.7,1072.8,685.7,1086.8C685.7,1086.8,685.7,1086.8,685.7,1086.8z"/>
		<path d="M1446.4,663.2c-4.4-0.1-7.2-1.9-9.9-3.7c-41.1-27.3-83.4-52.6-125.3-78.8c-27.3-17.1-54.3-34.5-81.4-51.8
			c-3.2-2-6.4-4.1-9.8-6c-9.6-5.4-10-8.2-0.8-13.9c43.6-26.9,87.3-53.6,130.9-80.5c13.7-8.5,27.1-17.3,40.6-26.2
			c8-5.3,14.5-5.9,23.6,0c48.1,31.6,96.7,62.2,145.3,93c23.3,14.7,46.8,28.9,70.3,43.4c7.2,4.4,7,7.7-0.3,12.2
			c-44.1,27.6-88.2,55.3-132.4,82.8c-14.6,9.1-29.4,17.8-44.1,26.6C1450.8,661.7,1448.1,662.5,1446.4,663.2z"/>
		<path d="M507,1207.8c0,13.1,0.3,26.2-0.1,39.3c-0.3,7.8,2.8,13.1,9.3,16.8c16.8,9.6,33,20.2,49.2,30.8c5.9,3.9,8.9,8.3,8.9,15.3
			c-0.1,48.6,0,97.2,0,145.8c0,2.9,0.5,6.4-2.9,7.9c-3.2,1.4-5.7-0.9-8.2-2.5c-53.9-35.7-110.3-67.4-164.6-102.4
			c-11.5-7.4-23.2-14.3-34.9-21.3c-6.5-3.9-9.8-9.2-8-17.1c1.6-7.3-0.9-14.6-0.9-22c0.2-54.6,0.5-109.2-0.3-163.8
			c-0.4-24.3-1.3-48.5-1.3-72.8c0-12,2.4-13.6,12.7-7.4c25,15.1,49.6,30.7,74.5,46c13.2,8.1,26.6,16,40,24c5.8,3.5,10,8.3,12.8,14.4
			c2.9,6.2,5.6,12.4,10.5,17.4c3.1,3.1,3.3,7.3,3.3,11.5C507,1181,507,1194.4,507,1207.8C507,1207.8,507,1207.8,507,1207.8z"/>
		<path d="M1644.1,600.7c-2.3,43.9-1.1,87.8-1.9,131.8c-0.2,12.5-1.3,25-1.3,37.6c0,6-3.1,9.6-7.8,12.4
			c-22.8,13.9-45.7,27.8-68.5,41.8c-26.7,16.4-53.5,32.8-80.2,49.2c-4.9,3-9.7,3.5-14.7,0.7c-4.3-2.4-8.8-2.5-13.5-2.6
			c-9.8-0.1-11.8-2.1-12-12.2c-0.2-7.6-0.4-15.3,0-22.9c3-46.4,0.8-92.8,1.3-139.1c0.1-7.6,2.3-12.3,9-16.6
			c41.6-26.5,84.4-51.2,126.4-77.1c17.7-10.9,35.1-22.1,52.6-33.2c7.6-4.8,10.1-3.5,10.3,5.5
			C1644.3,584.3,1644.1,592.5,1644.1,600.7z"/>
		<path d="M349.9,666.8c0-30.8,0-61.7,0-92.5c0-10.5,1.8-11.6,10.5-6.2c35.7,22.1,71.4,44.3,107,66.5c21.3,13.2,42.4,27,64.1,39.4
			c11,6.3,15,14.4,15,26.5c-0.3,48.6-0.1,97.2-0.2,145.8c0,3-0.1,6-0.5,9c-1.5,10.8-1.7,10.8-12.7,10.3c-2.1-0.1-4.6-0.1-6.4,0.8
			c-10.3,5-18.9,2-28.2-3.8c-36.8-23-73.9-45.5-110.9-68c-9.5-5.8-19.6-10.5-28.8-17.1c-7.2-5.2-9.1-11.6-9.1-19.7
			C350,727.4,349.9,697.1,349.9,666.8C349.9,666.8,349.9,666.8,349.9,666.8z"/>
		<path d="M351.5,890.6c0-8.7-0.2-17.5,0.1-26.2c0.2-7.1,2.5-8.4,8.5-4.8c31,18.4,61.9,36.8,92.8,55.2c12.2,7.2,24.5,14.3,36.7,21.5
			c3,1.8,6.5,3.5,8.6,6.2c15.9,19.7,38.2,30.4,59.3,42.8c20.2,11.9,40.1,24.3,59.7,37.2c4.7,3.1,6.4,6.8,6.3,12.2
			c-0.2,12.2-1.2,24.6,2.6,36.6c1.4,4.5-0.9,8-4.3,10.7c-11.5,9.3-21.8,19.7-31.3,31.1c-4.6,5.6-7.6,4.9-9.9-2.5
			c-4.5-14.3-13.1-25.4-24.3-35.2c-8-7-17.2-12.2-27.3-11.3c-18.5,1.7-32.4-7.6-46.8-16.3c-39.1-23.8-78.1-47.8-117.3-71.5
			c-8.2-5-12.4-10.9-12.1-21.1c0.7-21.5,0.2-43.1,0.2-64.6C352.5,890.6,352,890.6,351.5,890.6z"/>
		<path d="M690.7,309.8c10.7,0,21.3-0.3,31.9,0.1c6.8,0.3,12.5-1.3,16.5-7c9.7-14,38.6-13.9,50.7-6.2c9,5.7,14,13.1,14,24.2
			c0,12.6-6,21.9-16.3,27.4c-14.1,7.5-29.2,8.2-44.1,1c-5.1-2.5-9.5-5.9-11.6-11c-2.6-6.2-7-7.3-13-7.3
			c-80.2-0.8-159,8.9-236.1,30.9c-51.4,14.7-100.6,34.6-145.8,63.5c-37.5,23.9-72.3,51.1-97.9,88.2c-43.2,62.6-45.4,131.3-1.5,194.8
			c25.2,36.5,58.7,63.2,96.2,86c32.4,19.7,64.7,39.5,97.3,58.9c25.6,15.2,51,30.6,76.5,45.9c3.6,2.2,6.9,2.5,10.6,0
			c20.9-14,37.9-9.3,49.7,13.4c4.6,8.8,5.8,18.2,4.6,27.8c-1.6,12.5-14,21-26.3,18.5c-16.3-3.4-27.5-14.6-30.3-31.5
			c-1-5.7-3.6-9-8.5-12c-36.1-21.5-72.2-42.9-108-64.9c-33.2-20.4-68.4-37.8-100.2-60.5c-34.9-24.9-66.2-53.5-87.2-91.8
			c-18.2-33.2-26.1-68.3-23.1-106.2c4-51.4,27.6-93,62.7-128.9c47.4-48.6,105.2-81,167.7-105.7c47.4-18.8,96.7-30.5,147-38.3
			C607.4,312.8,648.9,310.1,690.7,309.8z M526.9,918.7c0.1,12.5,7.2,23,17.5,25.8c7.7,2.2,12.2-0.3,14.1-7.9
			c2.7-11.3-1.5-20.2-10-27.6c-4.8-4.2-10-5.4-15.9-2.8C527.1,908.7,526.9,913.7,526.9,918.7z"/>
		<path d="M987.1,1624.7c1,24.2-1.6,51.7,1.5,79.2c0.2,1.6,0.1,3.3,0,4.9c-0.6,7.7-3.2,9.6-9.9,5.7c-15-8.8-29.8-18.2-44.7-27.2
			c-27.2-16.6-54.4-33.3-81.8-49.7c-5.5-3.3-7.8-7.6-7.8-14c0.2-41.7,0-83.5,0.1-125.2c0-10.3,2.9-13.1,13-13.7
			c3.5-0.2,7.3,0.3,10.5-0.8c14.9-5.2,27.2-0.8,39.7,7.8c22.2,15.2,45.2,29.6,68.1,43.8c8,5,11.7,10.8,11.4,20.6
			C986.7,1577.7,987.1,1599.5,987.1,1624.7z"/>
		<path d="M1801.5,626.8c-0.5,37.3-16.6,76.5-44.3,111.3c-26.3,33-60.1,56.7-95.8,78.3c-46,27.8-91.8,55.9-137.8,83.7
			c-12.8,7.7-26,15-39.3,22c-5.9,3.1-10.2,6.8-11.6,13.7c-1.9,9.5-7.5,16.8-14.8,23c-8.6,7.4-24.2,9-32.9,3.2
			c-7.8-5.2-12.1-19.9-9-30.4c2.7-9.3,6.5-17.9,13.6-24.8c13.3-13.1,27.6-13.5,40.8-0.5c4.2,4.1,7.2,1.9,10.8-0.2
			c23-13.7,46.1-27.2,68.9-41c43.9-26.6,88.2-52.4,131-80.7c35-23.1,64-51.5,83.5-89.1c23.1-44.5,24.1-89.1,4-134.8
			c-21.2-48.2-56.8-83.4-99.4-112.6c-36-24.7-75-43.2-115.3-59.7c-38.1-15.6-77.9-24.9-117.6-34.8c-4.9-1.2-8.6-0.4-12.6,3.2
			c-12.8,11.7-25.1,13-38.2,6.3c-15.6-8-18.8-23-13.3-38.5c5.7-15.8,21.3-23.2,37.2-18.5c9,2.6,14.4,9.8,18.6,17.5
			c2.6,4.6,5.9,6.8,10.7,7.6c58.6,9.6,114.2,29.2,167.9,53.8c41.3,18.9,80.2,41.6,114,72.8c29.3,27,54.2,56.7,68.2,94.6
			C1797.2,573.7,1801.5,596,1801.5,626.8z M1459.1,928.2c0.1-6.8-0.6-12.7-7.9-14.8c-7.1-2.2-12.3,0.9-16.1,6.5
			c-3.9,5.7-6.1,12.2-5.2,19.2c1.3,10,11.5,14.3,19.5,8.2C1455.8,942.5,1459.9,936.3,1459.1,928.2z"/>
		<path d="M780.7,1503.1c1,23.3-1.4,48.4,1.5,73.5c0.4,3.4,1.1,7.5-2.4,9.8c-3.9,2.5-7.2-0.5-10.6-2.2c-1.2-0.6-2.2-1.6-3.5-2.2
			c-12.2-6.1-17.7-13.8-13.8-29.1c4.4-17.7-4.1-33.8-15.3-47.5c-9.2-11.3-19.8-20.7-35.8-22.2c-17-1.6-32.1,7.8-36.6,24.4
			c-2,7.7-4,8.5-10.8,4.5c-4.5-2.6-8.7-5.8-13.5-7.6c-11.1-4.1-13.8-11.9-13.5-23.1c0.7-26.2,1.1-52.4-0.1-78.6
			c-0.9-18.8,2.2-37.6-0.9-56.3c-0.5-3-0.3-6.3,2.6-8.2c3.4-2.2,6.3-0.1,9,1.8c22.1,15.5,45.6,28.9,68.4,43.3
			c22.6,14.2,45.3,28.3,68.2,42.1c5.5,3.3,7.1,7.6,7,13.6C780.6,1459.9,780.7,1480.6,780.7,1503.1z"/>
		<path d="M1783.7,1358.2c-2.2-29.7-10.3-58.7-26.2-85.6c-21.9-37.1-53.3-64.5-89.7-86.5c-5.1-3.1-9.2-6.6-8.9-13.4
			c0.3-8.4,2.7-10.3,9.8-5.8c14.2,9.2,28.8,17.8,42,28.4c23.1,18.6,42.8,40.6,58.6,65.6c16.7,26.6,27.4,55.6,30.8,87.2
			c4.5,40.7-4.7,77.9-25.7,112.6c-25,41-60.2,71.4-100.4,96.7c-48,30.2-100,51.1-154.2,66.6c-40.2,11.5-80.9,20.2-122.8,22.9
			c-3,0.2-5.9,1-8.9,1.3c-9.8,1-18,2.5-24.6,12.4c-9.6,14.4-28.5,18.2-40.3,11.2c-15.3-9-19.9-30.3-9.8-45
			c11.1-16.1,31.7-19.8,46.1-5.8c9.2,9,18.2,9,28.8,7.3c43.4-7,86.7-14,128.8-27.1c63.7-19.8,124.6-45.1,177.6-86.8
			c29.5-23.2,54.5-50.3,71.6-84C1777.4,1408.2,1782.6,1384.3,1783.7,1358.2z"/>
		<path d="M579.5,1607.4c-14.7-0.8-24.9-7-30.7-19.1c-2.5-5.4-6-7.8-11.6-8.7c-42-6.4-82.6-17.4-122.3-32.7
			c-38.9-14.9-76-33.3-110.3-56.8c-36.1-24.7-68-54-90.8-91.8c-17.3-28.7-26.5-60.2-25.8-93.5c0.9-45.8,15.6-87.2,45.5-122.6
			c25.9-30.7,55.8-56.7,90-77.7c2.8-1.8,6.1-4.2,8.5-0.3c2.6,4.2,2.4,9.1-1.2,12.9c-2.2,2.3-5.2,3.9-7.9,5.7
			c-34.1,22.6-65.7,48.2-88.4,82.7c-31.7,48.2-38.5,99.6-15.7,153.5c9.9,23.3,24.1,44,41.1,62.6c43.2,47.1,97,77.9,155.5,101.6
			c38.8,15.7,78.9,27.1,120.1,34.8c7.2,1.4,12.6,0.7,18.7-4.2c20.7-16.2,47.7-6.8,53.2,18C611.4,1589.1,595.8,1607.9,579.5,1607.4z"
			/>
		<path d="M1639.3,914.8c-0.9,16.2,1.1,34.2-1.5,52.2c-0.8,5.4-3.2,8.7-7.8,11.5c-22.9,14.3-45.5,29-68.3,43.5
			c-9.7,6.1-19.6,11.8-29.5,17.6c-4.5,2.6-7.7,1.4-9.3-3.8c-9.2-29.2-29.3-45.6-59.5-49.8c-1.9-0.3-3.8-0.6-5.6-1.1
			c-5.3-1.4-5.6-4.3-1.6-7.3c20.5-15.2,38.6-33.3,61.3-46c36.6-20.5,72.2-42.8,108.2-64.4c1.6-1,3.2-2.1,4.9-2.9
			c6.2-2.8,8.5-1.5,8.6,5.4C1639.4,884.1,1639.3,898.6,1639.3,914.8z"/>
		<path d="M177.8,912.8c-0.8-11.8,3.7-22,15-27.2c12-5.5,23.6-2.1,33.5,6.2c9.5,8,14.3,18.7,15,30.8c0.4,6.9,3,11.2,8.5,14.6
			c23.2,14.4,46.2,29,69.5,43.3c19.3,11.9,38.7,23.4,58,35.2c37.3,22.7,74.5,45.4,111.8,68.2c2.1,1.3,4.4,2.3,6.2,3.9
			c8,7.1,15.7,8.5,25.5,2.2c9.1-5.8,18-0.8,25.8,4.7c15.9,11.1,21.2,35.2,11,49.3c-7.1,9.8-18.1,12.1-28.9,6.4
			c-13-6.8-19.1-18.3-21.5-32.1c-1.1-6.8-4.4-11-10.3-14.6c-63-38.6-126.6-76.4-190.1-114.2c-20.1-12-39.8-24.8-59.5-37.5
			c-5.8-3.7-10.3-4.6-15.6,1.5c-5.8,6.7-21.6,7-30.7,1C186.4,945,177.1,931.8,177.8,912.8z M531.1,1102.8c-4.6-0.2-7.8,1.9-10,5.7
			c-6.7,11.6,3.9,31,17.2,31.6c4.4,0.2,8.1-1.4,10.4-5.3c4-6.6,2.6-13.2-1-19.4C544,1109,539.7,1102.9,531.1,1102.8z"/>
		<path d="M805.3,1514c0-10,0-17.4,0-24.8c0-5.6,2.6-8.8,8.3-8.9c6.3-0.1,4.8,4.9,4.8,8.4c0.4,17.7,0.5,35.4,1.2,53.1
			c0.9,20.3-0.8,40.7-1,61.1c-0.1,10.3,1.2,20.7,1.2,31c0.1,48.2,0.2,96.5-0.1,144.7c0,8.5,2.5,13.8,9.6,19
			c12.1,8.8,18.4,21.5,16.7,36.9c-2.8,25.2-30.5,35.7-52.5,20.7c-21-14.4-24.7-50.4,4.2-62.4c5.3-2.2,7.6-6.5,7.6-12.4
			c-0.1-70.7,0.7-141.3-0.7-212C804.3,1549.4,806.5,1530.4,805.3,1514z"/>
		<path d="M1815,919.8c0.2,23.4-18.9,45.2-39.5,45.3c-7.6,0-14.7-1.7-19.8-7.9c-3.4-4.2-6.5-2.5-9.9-0.3c-22.1,14-44,28.3-66.3,42
			c-52.1,31.9-104.3,63.4-156.5,95.1c-2,1.2-4.2,3.6-6.6,1.7c-2.6-2-1.5-4.9-0.5-7.5c3.1-7.9,8.5-13.9,15.9-18.1
			c35.9-20.2,70.2-42.9,105.4-64.3c31.6-19.3,63.1-38.9,94.7-58.4c3.7-2.3,7.1-5.1,10.8-7.3c4.8-2.8,6-7,6.4-12.3
			c1.5-16.9,10.8-29.2,25.7-36.2C1795.2,882.1,1814.9,896.3,1815,919.8z"/>
		<path d="M730,1539.5c0,15.2-11.2,25.2-26,22.8c-5.2-0.8-8.9,0.4-12.4,4c-8.9,9.1-17.9,18.2-27.1,27.1c-4.1,3.9-8.2,8.2-14.3,8.9
			c-4.4,0.5-9.2,0.5-11.1-4.6c-1.9-5-0.9-9.6,3.8-13c8.1-6,17.7-9.5,25.7-15.9c10-8,17.7-15.6,14.6-30.7c-2.7-13,10-26.7,22.4-27.2
			C718.2,1510.4,730,1524.1,730,1539.5z"/>
		<path d="M1206.7,1606.9c0.1,4.4,0,8.7-1.8,12.9c-1.5,3.7-4.3,5.4-8.2,5.6c-3.9,0.2-6.8-1.2-8.8-4.7c-4.2-7.5-2.8-24.2,2.9-30.4
			c5.3-5.9,12-4.5,14.3,2.9C1206.6,1597.6,1206.8,1602.2,1206.7,1606.9z"/>
		<path d="M979,1076.9c-0.1,20.3-16,34.3-34.8,35c-19.4,0.7-35.7-16.7-35.6-36.3c0.1-19.5,15.5-35.1,34.5-35
			C963.8,1040.6,979.1,1056.1,979,1076.9z"/>
	</g>
	<g>
		<linearGradient id="SVGID_1_" gradientUnits="userSpaceOnUse" x1="255.1981" y1="1548.3806" x2="1304.0869" y2="748.3807">
			<stop  offset="0" style="stop-color:#1C6696"/>
			<stop  offset="1" style="stop-color:#4CFADF"/>
		</linearGradient>
		<path class="st0" d="M886.7,1143.2c-2.3,7.8-2.7,14.2-2.8,20.8c-0.1,5-2.4,6.5-6.8,3.7c-16.4-10.7-32.8-21.6-49.2-32.3
			c-3.6-2.4-4.5-5.9-4.5-9.9c0-54.9-0.1-109.8-0.2-164.7c0-6,2.9-9.7,7.6-12.5c14.9-9.1,29.7-18.4,44.6-27.5c7-4.3,9.7-2.7,10.1,5.7
			c1,21.8-1.7,43.6-1.4,65.5c0.1,4.7-1.9,11.5,3.1,13.2c3.4,1.2,5.8-5.5,8.3-8.9c10.6-13.9,20.8-28,31.3-42
			c3.4-4.6,4.8-9.5,4.8-15.2c-0.1-65.3-0.2-130.5-0.1-195.8c0-6.8-2-12-6.8-16.8c-6-5.9-11.3-12.5-17.2-18.6c-8-8.4-13.8-8.7-21,0.2
			c-10.4,12.9-27,8.7-34.1,1.6c-8.9-8.9-8.1-26.5,1.2-34c11.4-9.2,28.3-6.8,35.7,5.5c3.3,5.6,6.7,9.5,13.7,9.4
			c3.8,0,7.1,2.1,9.8,5.2c5,5.7,9.8,12,15.8,16.6c12.7,9.7,16.2,22.8,15.7,37.5c-1.6,54.8-1.2,109.7-1.5,164.6
			c0,2.2-0.5,4.3-0.7,6.5c-0.4,2.9-1.8,6.6,1.4,8.2c3.9,2,5.9-2.1,7.7-4.4c7.6-9.6,14.9-19.5,22.3-29.2
			c31.8-41.9,63.7-83.8,95.4-125.8c5.9-7.8,11.7-15.8,16.9-24.1c3.8-6,8.7-8.2,15.7-8.2c32.2,0.2,64.4,0.2,96.7,0
			c17.2-0.1,34.3-1,51.5-1.3c3.4-0.1,7.7-1.2,9.7,2.7c1.9,3.7-1.9,5.8-3.8,8.3c-38.6,53.5-80.8,104.4-119.1,158.3
			c-1.8,2.5-5.4,5-3.5,8.5c1.8,3.4,5.9,2.4,9,2.2c24-1.7,48-0.2,71.9,0.5c16.4,0.5,28.4-4.9,38.5-16.9c2.1-2.5,4.2-5.1,6.8-7.1
			c8.4-6.8,12.4-14.8,11.6-26.2c-0.9-11.8,10.9-22.1,22.8-22c12.4,0.1,22.7,10.6,22.8,23.3c0.1,13.2-8.6,22.9-21.7,22.2
			c-10.7-0.5-18.9,2.1-25.9,10.4c-5.2,6.2-12.3,10.9-17.5,17.2c-6.8,8.1-14.9,10.5-25.2,10.3c-32.2-0.5-64.4,0-96.7-0.3
			c-7,0-11.9,2.2-16,7.8c-7.8,10.8-16.1,21.4-24.1,32.1c-1.2,1.7-3.3,3.5-2.3,5.8c1.2,2.8,4.3,2,6.6,1.9c32.2-0.4,64.4-1,96.6-1.4
			c4.9-0.1,8.3-2.2,10.9-6c2.3-3.4,4.9-6.6,8.4-8.9c2.4-1.6,5.2-2,7.7-0.2c2.6,1.9,2.4,4.7,1.5,7.4c-3.1,9.8-18.2,21-28.7,20.5
			c-32.7-1.6-65.5-1.1-98.2-1.7c-11-0.2-18.2,3.2-24.5,12.5c-9.8,14.7-21.2,28.4-31.8,42.6c-1.5,2-4.6,4-2.8,7
			c1.6,2.8,4.9,2.1,7.5,1.9c35.7-2.9,71.4,1.5,107.1,0.1c6.3-0.2,10.6-2,14.2-7.6c5.6-8.6,18.9-11.9,28.7-8.1
			c7.2,2.8,14.9,15.1,13.9,22.5c-1.4,11.3-10.2,20.9-21.2,22c-8.9,0.9-16.1-3.6-20.9-10.6c-3.8-5.5-8.4-6.9-14.6-6.9
			c-26.8,0.2-53.5,0.2-80.3,0c-12.3-0.1-24.5-1.3-36.8-1.4c-14.6-0.2-21.6,11.3-14.8,23.9c20.7,38.1,41.6,76.1,62.5,114.1
			c1.2,2.3,2,5.7,5.3,5.5c2.9-0.2,3-3.5,4.1-5.6c15.7-29.9,31.5-59.9,47.2-89.8c2.6-5,6.5-7.2,11.9-7.2c20.5,0,41,0,61.4-0.1
			c5.6,0,9,2.6,11.5,7.5c9.5,19,19.3,37.9,29,56.8c0.8,1.5,1.1,4.3,3.7,3.4c2.1-0.7,1.7-3.3,1.6-5.1c-0.4-9.3-1.3-18.5-1.4-27.8
			c-0.2-28.7,0.1-57.3-0.2-86c-0.1-7.4,2.4-13.2,7.8-18c3.6-3.3,6.6-7.3,10.4-10.4c9.5-7.9,15-16.5,13.3-30.1
			c-1.6-12.3,9.6-21.5,22.7-21.3c11.9,0.1,22.6,10.8,22.8,22.5c0.1,12.2-9.1,21.9-21.8,21.4c-9.6-0.4-17.1,1.7-22.2,10.3
			c-1.2,2-3.3,3.8-5.3,5.1c-14.3,8.9-16,22.9-15.5,37.9c1.2,34.1,2.3,68.2-0.7,102.2c-0.9,9.8,0,19,3.6,28.1c1,2.7,0.9,6.6,4.7,6.9
			c3.6,0.3,4.7-3.3,5.9-5.9c6.9-14.2,13.6-28.6,20.7-42.8c15.9-31.7,32-63.3,47.9-95c3.4-6.8,9.6-7.3,16.1-7.3
			c37.1,0,74.3,0,111.4-0.1c2.7,0,5.5-0.1,8.2,0.1c6.9,0.5,8.5,2.9,5.5,8.8c-18.6,36.2-37.3,72.3-55.8,108.4
			c-19.5,38.1-38.9,76.3-58.3,114.5c-8.9,17.5-17.8,35-26.6,52.6c-1,2-3.6,4.6-1.2,6.6c2.1,1.7,4.6-0.8,6.5-2.1
			c40.4-27,82.4-51.4,123.5-77.3c6.7-4.2,9.6-9.2,9.5-17.3c-0.4-25.9-0.6-51.8,1.3-77.7c0.3-4.5,1-8.6,4.3-12
			c1.5-1.5,3.1-3.4,3.7-5.3c3.9-12.5,13.5-19,24.1-25.2c36.5-21.4,72.5-43.4,108.9-65c8.6-5.1,11.8-3.1,11.3,7.1
			c-3.1,58.7,0,117.4-1.8,176c-0.8,26.7-0.9,53.5-1.2,80.2c-0.1,5.3-1.7,9.3-6.4,12.2c-31,19.3-61.9,39-92.9,58.3
			c-50,31.1-100.1,62.1-150.3,93.1c-46.2,28.5-92.5,56.9-138.8,85.2c-5.6,3.4-11.4,6.4-17.2,9.5c-3.6,2-6.5,1.9-8.7-2.4
			c-6.7-12.7-13.4-16.7-24.7-15.3c-12.6,1.6-22.6,10.3-25.9,23.1c-1.8,7.2-3,14.5-1.4,21.9c1.4,6.3-1,10.4-6.2,13.7
			c-40.8,26.4-82.5,51.2-123.9,76.7c-7.7,4.7-15.3,9.4-23.1,14c-8,4.7-11.2,3.1-11.3-5.8c-0.1-48.3,0-96.7,0-145
			c0-6.7,2.7-11.1,8.5-14.6c51.2-30.8,101.5-63,153-93.4c31-18.3,61-38.2,91.5-57.3c0.5-0.3,0.9-0.6,1.4-0.9
			c2.7-2.2,7.5-4.3,6.8-7.5c-1-4.1-6.1-1.9-9.3-2c-8.4-0.4-14.3-3.8-18.2-11.6c-3.6-7.3-8-14.3-12.2-21.3c-2.3-3.9-5.4-6-8.7-1
			c-7.6,11.6-18.3,20.2-27.8,29.9c-23.6,24.2-47.3,48.3-71,72.4c-3.5,3.6-7.8,5-12.5,5.2c-5.2,0.2-10.4,0.4-15.6,0.1
			c-10.4-0.7-19,0.7-26.6,9.8c-8.6,10.2-23.4,8.2-32.4-2.2c-7-8.1-4.7-24,4.6-31.5c9.1-7.3,24.3-5.2,31,5c3.8,5.8,8.5,6.8,14.8,7.9
			c20.7,3.4,34.7-4.5,48.7-19.8c24.5-26.7,49.6-53,74.9-79c11.5-11.8,11.7-11.7,3.7-26.4c-8.1-14.8-16.4-29.6-24.6-44.3
			c-3.6-6.4-5.7-6.7-9.2,0c-8.2,15.7-15.8,31.7-23.9,47.5c-8.5,16.5-17.3,32.8-25.9,49.3c-2.9,5.5-7.9,6.6-13.2,6.6
			c-23.2-0.3-46.4-0.9-69.5-1.4c-4-0.1-6.6-2.2-8.6-5.4c-19.2-30.8-38.4-61.6-57.7-92.3c-8.6-13.6-17.3-27.2-26.1-40.7
			c-1.1-1.7-2.2-4.4-4.8-3.6c-2.7,0.9-1.7,3.7-1.5,5.8c3.2,47.2,0.6,94.4,1.4,141.6c0.1,5-2,9-5.5,12.3
			c-9.9,9.4-19.8,18.8-29.7,28.1c-1.8,1.7-4,3.3-6.5,3c-7.8-0.8-12.2,3.2-16.5,9.3c-8,11.4-22.8,11.9-33.7,2.1
			c-8.3-7.5-8.6-21-0.6-29.3c10.1-10.4,23.5-10.3,33,0.3c10.1,11.3,15.9,11.2,26.1-0.3c4.2-4.7,7.9-9.9,12.6-13.9
			c9.6-8.1,11.7-18.1,11.1-30c-1-19.1-1.8-38.2-1.5-57.2c0.4-18.5-0.3-37-0.2-55.5c0-3.3-0.6-6.8,0.5-9.8c5.5-14.8,1.2-27.5-7-40.1
			c-12.2-18.7-23.7-38-35.6-56.9C891.3,1148.2,889.3,1146.3,886.7,1143.2z M892,1076.8c-0.9,9,1.8,18.2,7.8,26.5
			c12.5,17.3,28.3,27.8,50.6,25.7c5-0.5,9.2,0.2,12.5,5.4c17.4,27.4,35,54.7,52.9,81.7c6.8,10.2,12.5,19.6,9.3,33.1
			c-2.3,9.7,4.6,18.2,14.4,22.3c7.6,3.2,14.7,0.9,22.1-6.3c6.2-6.2,7.2-13.5,4.7-21.2c-3-8.9-10.4-13.8-19.2-14.3
			c-7.9-0.5-12.2-3.9-16.2-10.2c-18.5-29.3-37.2-58.4-56.2-87.4c-4.2-6.4-4.3-10.4,2.3-15.7c24.8-19.9,24-62.9-0.9-82.2
			c-15.8-12.2-15.8-12.2-2.8-28c0.9-1,2-2,2.7-3.1c5.6-9.3,13-14,24.7-13.8c12.4,0.3,21.1-11.3,18.5-23.7c-1.9-9.2,1-15.9,6.3-22.6
			c27.1-34.2,54.1-68.5,81.1-102.7c4.4-5.5,9-9.4,17.3-8.4c9.8,1.2,18.4-5.4,22.1-14.9c3.3-8.3,0.7-18.6-6.4-24.5
			c-7.7-6.4-16.5-7.6-25.3-3.3c-8,3.9-11.7,11-11,20.2c0.5,6.9,1.6,13.2-3.5,20c-27.7,36.9-57,72.4-85.3,108.8
			c-4.2,5.4-9.3,7.4-16.3,7.4c-17.4-0.1-26.2,10.5-23.4,27.6c1,5.7,0.2,10.4-3.1,15.4c-5.3,8-11.8,15-17,23
			c-4.8,7.4-11.2,10.9-19.9,12.5C907.6,1029,892,1048,892,1076.8z"/>
		<linearGradient id="SVGID_2_" gradientUnits="userSpaceOnUse" x1="255.1981" y1="1548.3806" x2="1304.0869" y2="748.3807">
			<stop  offset="0" style="stop-color:#1C6696"/>
			<stop  offset="1" style="stop-color:#4CFADF"/>
		</linearGradient>
		<path class="st1" d="M834.6,319.9c-0.7-17.2-7.6-30.1-19.7-40.2c-2.3-1.9-4.8-3.6-7.2-5.4c-6.7-5.1-6.8-6.7,0.3-11.1
			c31.9-19.4,64-38.6,95.9-58c27.5-16.7,55-33.5,82.3-50.6c5.9-3.7,10.4-3.9,16.4-0.2c48.2,29.9,96.7,59.4,145,89.1
			c7,4.3,13.8,8.8,20.6,13.4c10,6.8,10.4,17,0.3,24c-10.8,7.4-22.2,13.9-33.4,20.7c-32.3,19.8-64.7,39.5-97.1,59.4
			c-56.8,34.8-113.5,69.6-170.2,104.4c-34.4,21.1-68.9,42.1-103.3,63.2c-34.9,21.4-69.7,42.8-104.6,64.2s-69.6,43-104.9,63.7
			c-6.2,3.6-10.8,3.3-16.5-0.2c-25.9-16.2-52-32.1-77.9-48.2c-32-19.8-63.9-39.8-95.9-59.6c-9.5-5.9-9.3-8.8,0.3-14.6
			c38.6-23.2,77-46.5,115.5-70c38.4-23.4,76.9-46.9,115.2-70.4c20.9-12.8,41.8-25.7,62.5-38.9c17.3-11,25.9-10.9,42,1.8
			c15.9,12.6,33.3,22,54,23.1c29.1,1.6,53.8-7.4,71.5-31.5C832.2,339.5,833.3,328.9,834.6,319.9z"/>
		<linearGradient id="SVGID_3_" gradientUnits="userSpaceOnUse" x1="255.1981" y1="1548.3806" x2="1304.0869" y2="748.3807">
			<stop  offset="0" style="stop-color:#1C6696"/>
			<stop  offset="1" style="stop-color:#4CFADF"/>
		</linearGradient>
		<path class="st2" d="M1234.6,93.2c0.7,16.3-8.8,25.9-22,32.4c-5.9,2.9-7.7,6.5-7.6,12.7c0.2,51.9,0,103.8,0.1,155.6
			c0,8.5-0.7,16.9-1.3,25.3c-0.6,7.7,2.7,9.7,9.4,5.8c9.2-5.4,18.4-10.8,27-17c6.8-4.9,11.6-5,18.8,0.1
			c16.3,11.4,33.7,21.3,50.5,31.9c14.3,9,28.7,18,42.8,27.2c7.2,4.7,7.3,7.1,0,11.7c-30.8,19.1-61.9,38-92.8,57.1
			c-24.4,15.1-48.5,30.5-72.9,45.5c-18.1,11.2-36.4,22-54.7,33c-10,6-20.2,12-30.1,18.2c-5.1,3.2-7.1,6.6-0.5,10.9
			c11.9,7.7,23.5,15.9,35.5,23.5c7.4,4.8,7.8,8.3,0.4,13.2c-33.4,21.7-67,43.1-100.5,64.7c-9.2,5.9-18.6,11.5-27.3,18
			c-8.2,6.2-15.3,6-23.8,0.5c-20.5-13.4-41.4-26.4-62.2-39.3c-28.3-17.5-56.7-34.9-85-52.2c-7.9-4.8-8.2-8.3,0-13.4
			c32.4-20.2,64.9-40.2,97.4-60.3c28.8-17.8,57.5-35.7,86.3-53.4c32.6-19.9,65.2-39.7,97.5-60.2c21.4-13.6,43-26.9,64.1-40.9
			c4.5-3,7.6-5.7,4.5-11.9c-1.4-2.9-1-7-1-10.5c0-60.3,0-120.7,0.2-181c0-7.1-1.3-11.9-8.3-15.9c-16.4-9.5-22.5-27.5-16.7-45.4
			c4.9-15.1,20.3-25.4,36.8-24.5C1218.9,55.3,1234.7,72.6,1234.6,93.2z"/>
		<linearGradient id="SVGID_4_" gradientUnits="userSpaceOnUse" x1="255.1981" y1="1548.3806" x2="1304.0869" y2="748.3807">
			<stop  offset="0" style="stop-color:#1C6696"/>
			<stop  offset="1" style="stop-color:#4CFADF"/>
		</linearGradient>
		<path class="st3" d="M685.7,1086.8c0,12.3,0.4,24.6-0.1,36.8c-0.3,8.2,1.7,14.1,8.4,19.8c12.5,10.4,10.4,27.7-3.2,35.6
			c-10.5,6.1-24.9,2.2-31.5-8.5c-6-9.7-2.7-22.8,8.1-28.9c5.3-3,7-6.7,7-12.5c-0.2-28.9,0-57.9-0.2-86.8c0-6.5,1.8-11.4,6.6-15.9
			c18.9-17.7,37.5-35.8,56.4-53.5c3.1-2.9,4.2-6.1,4.2-10.1c0.1-14.2,0.3-28.3,0.3-42.5c0-2.9,0.7-5.4,2.5-7.6
			c8.7-10.5,17.6-20.9,26.1-31.5c4.9-6.1,10.7-8.3,18.5-7.9c11.1,0.5,19-5.1,22.2-14.5c3.2-9.4-0.1-20-8.4-26.3
			c-7.4-5.6-15.3-6.7-23.8-2.4c-8.5,4.4-12.9,11.9-11,20.9c2.4,10.8-1.3,18.2-8.3,25.6c-9.5,10.1-18.4,20.9-27.4,31.4
			c-3.5,4-6.8,4.3-11.4,1.4c-28.3-18-23.2-8.3-23.6-41c-0.2-20.8,0.2-41.5-0.1-62.2c-0.1-7.3,2.4-12.2,8.6-16.2
			c25.6-16.7,51.7-32.6,77.8-48.5c4.5-2.8,8.6-2.7,13,0c25.9,15.7,51.8,31.3,77.7,47c4,2.4,5.9,5.9,6.7,10.6
			c1.4,8.4,1.9,16.9,1,25.3c-2.1,19.4-1.3,38.7-1,58.1c0.1,9.3-2.7,15.3-10.8,20.1c-19.2,11.3-38.2,23.1-56.9,35.5
			c-6.4,4.2-8.9,9-7.4,16.4c0.8,4,1,8.1,1,12.2c0,48,0,96.1,0,144.2c0,7.4-0.2,14.8-2.2,21.9c-1.9,6.6,0.2,11.1,5.8,14.5
			c10.4,6.5,20.9,12.9,31.1,19.7c9.1,6.1,9,7.5,2.5,15.9c-7,9.1-13.8,18.3-20.5,27.6c-4.5,6.3-9.4,10.4-18,10.6
			c-15.2,0.4-23.7,11.8-21.3,26.7c2,12.4,14.5,20.5,26.9,17.4c13.4-3.3,21.2-16.6,16.8-29.5c-1.8-5.3-1.1-9.5,2.1-13.8
			c9-12,18-24,26.8-36.1c3.1-4.3,6.8-5.2,11.3-2.6c7.6,4.3,15.1,8.7,22.6,13.2c3.6,2.2,4.4,6,4.4,10c0,27.6-0.1,55.2,0,82.7
			c0,6.2-2.9,10.3-7.9,13.3c-24.8,14.9-49.6,29.7-74.3,44.6c-4.4,2.7-8.4,2.9-13,0.2c-25.6-15.1-51.3-29.9-77-44.9
			c-4.4-2.6-6.3-6.4-6.4-11.5c-0.8-26.7-1.8-53.4-1.6-80.2c0-8.2,3.2-13,10.3-16.8c22.9-12.3,43.8-27.6,65.9-41.3
			c4.5-2.8,6.4-6.7,5.8-11.7c-4.3-40.5,0.1-81.2-2.8-121.9c-1.3-18.4,0.5-37.1,1.2-55.6c0.3-7.1-1.7-11.2-8.9-14.3
			c-8.6-3.8-16.2-10.1-24.3-15.1c-2.2-1.4-4.8-3.6-7.5-1.8c-2.8,1.9-1.2,4.9-1,7.6c0.9,18.5,1.2,37.1-0.2,55.6
			c-1.2,15.3-0.6,30.6-0.5,45.8c0,4.5,2.5,7.5,6,10.1c8.5,6.3,10.5,15.3,7.8,24.9c-2.4,8.5-9,13.5-17.8,14.9
			c-10.7,1.7-17.8-4.1-23.2-12.1c-5.2-7.6-2.2-20.4,7.1-26.8c7.1-4.9,8.8-10.9,8.6-18.8c-0.4-13.4-0.1-26.8-0.2-40.1
			c0-2.3,0.7-5.4-2.3-6.3c-2.4-0.7-3.8,1.8-5.3,3.3c-14.7,14.3-29.2,28.7-43.9,42.9c-3.5,3.4-4,7.5-4,12
			C685.8,1058.9,685.7,1072.8,685.7,1086.8C685.7,1086.8,685.7,1086.8,685.7,1086.8z"/>
		<linearGradient id="SVGID_5_" gradientUnits="userSpaceOnUse" x1="255.1981" y1="1548.3806" x2="1304.0869" y2="748.3807">
			<stop  offset="0" style="stop-color:#1C6696"/>
			<stop  offset="1" style="stop-color:#4CFADF"/>
		</linearGradient>
		<path class="st4" d="M1446.4,663.2c-4.4-0.1-7.2-1.9-9.9-3.7c-41.1-27.3-83.4-52.6-125.3-78.8c-27.3-17.1-54.3-34.5-81.4-51.8
			c-3.2-2-6.4-4.1-9.8-6c-9.6-5.4-10-8.2-0.8-13.9c43.6-26.9,87.3-53.6,130.9-80.5c13.7-8.5,27.1-17.3,40.6-26.2
			c8-5.3,14.5-5.9,23.6,0c48.1,31.6,96.7,62.2,145.3,93c23.3,14.7,46.8,28.9,70.3,43.4c7.2,4.4,7,7.7-0.3,12.2
			c-44.1,27.6-88.2,55.3-132.4,82.8c-14.6,9.1-29.4,17.8-44.1,26.6C1450.8,661.7,1448.1,662.5,1446.4,663.2z"/>
		<linearGradient id="SVGID_6_" gradientUnits="userSpaceOnUse" x1="255.1981" y1="1548.3806" x2="1304.0869" y2="748.3807">
			<stop  offset="0" style="stop-color:#1C6696"/>
			<stop  offset="1" style="stop-color:#4CFADF"/>
		</linearGradient>
		<path class="st5" d="M507,1207.8c0,13.1,0.3,26.2-0.1,39.3c-0.3,7.8,2.8,13.1,9.3,16.8c16.8,9.6,33,20.2,49.2,30.8
			c5.9,3.9,8.9,8.3,8.9,15.3c-0.1,48.6,0,97.2,0,145.8c0,2.9,0.5,6.4-2.9,7.9c-3.2,1.4-5.7-0.9-8.2-2.5
			c-53.9-35.7-110.3-67.4-164.6-102.4c-11.5-7.4-23.2-14.3-34.9-21.3c-6.5-3.9-9.8-9.2-8-17.1c1.6-7.3-0.9-14.6-0.9-22
			c0.2-54.6,0.5-109.2-0.3-163.8c-0.4-24.3-1.3-48.5-1.3-72.8c0-12,2.4-13.6,12.7-7.4c25,15.1,49.6,30.7,74.5,46
			c13.2,8.1,26.6,16,40,24c5.8,3.5,10,8.3,12.8,14.4c2.9,6.2,5.6,12.4,10.5,17.4c3.1,3.1,3.3,7.3,3.3,11.5
			C507,1181,507,1194.4,507,1207.8C507,1207.8,507,1207.8,507,1207.8z"/>
		<linearGradient id="SVGID_7_" gradientUnits="userSpaceOnUse" x1="255.1981" y1="1548.3806" x2="1304.0869" y2="748.3807">
			<stop  offset="0" style="stop-color:#1C6696"/>
			<stop  offset="1" style="stop-color:#4CFADF"/>
		</linearGradient>
		<path class="st6" d="M1644.1,600.7c-2.3,43.9-1.1,87.8-1.9,131.8c-0.2,12.5-1.3,25-1.3,37.6c0,6-3.1,9.6-7.8,12.4
			c-22.8,13.9-45.7,27.8-68.5,41.8c-26.7,16.4-53.5,32.8-80.2,49.2c-4.9,3-9.7,3.5-14.7,0.7c-4.3-2.4-8.8-2.5-13.5-2.6
			c-9.8-0.1-11.8-2.1-12-12.2c-0.2-7.6-0.4-15.3,0-22.9c3-46.4,0.8-92.8,1.3-139.1c0.1-7.6,2.3-12.3,9-16.6
			c41.6-26.5,84.4-51.2,126.4-77.1c17.7-10.9,35.1-22.1,52.6-33.2c7.6-4.8,10.1-3.5,10.3,5.5
			C1644.3,584.3,1644.1,592.5,1644.1,600.7z"/>
		<linearGradient id="SVGID_8_" gradientUnits="userSpaceOnUse" x1="255.1981" y1="1548.3806" x2="1304.0869" y2="748.3807">
			<stop  offset="0" style="stop-color:#1C6696"/>
			<stop  offset="1" style="stop-color:#4CFADF"/>
		</linearGradient>
		<path class="st7" d="M349.9,666.8c0-30.8,0-61.7,0-92.5c0-10.5,1.8-11.6,10.5-6.2c35.7,22.1,71.4,44.3,107,66.5
			c21.3,13.2,42.4,27,64.1,39.4c11,6.3,15,14.4,15,26.5c-0.3,48.6-0.1,97.2-0.2,145.8c0,3-0.1,6-0.5,9c-1.5,10.8-1.7,10.8-12.7,10.3
			c-2.1-0.1-4.6-0.1-6.4,0.8c-10.3,5-18.9,2-28.2-3.8c-36.8-23-73.9-45.5-110.9-68c-9.5-5.8-19.6-10.5-28.8-17.1
			c-7.2-5.2-9.1-11.6-9.1-19.7C350,727.4,349.9,697.1,349.9,666.8C349.9,666.8,349.9,666.8,349.9,666.8z"/>
		<linearGradient id="SVGID_9_" gradientUnits="userSpaceOnUse" x1="255.1981" y1="1548.3806" x2="1304.0869" y2="748.3807">
			<stop  offset="0" style="stop-color:#1C6696"/>
			<stop  offset="1" style="stop-color:#4CFADF"/>
		</linearGradient>
		<path class="st8" d="M351.5,890.6c0-8.7-0.2-17.5,0.1-26.2c0.2-7.1,2.5-8.4,8.5-4.8c31,18.4,61.9,36.8,92.8,55.2
			c12.2,7.2,24.5,14.3,36.7,21.5c3,1.8,6.5,3.5,8.6,6.2c15.9,19.7,38.2,30.4,59.3,42.8c20.2,11.9,40.1,24.3,59.7,37.2
			c4.7,3.1,6.4,6.8,6.3,12.2c-0.2,12.2-1.2,24.6,2.6,36.6c1.4,4.5-0.9,8-4.3,10.7c-11.5,9.3-21.8,19.7-31.3,31.1
			c-4.6,5.6-7.6,4.9-9.9-2.5c-4.5-14.3-13.1-25.4-24.3-35.2c-8-7-17.2-12.2-27.3-11.3c-18.5,1.7-32.4-7.6-46.8-16.3
			c-39.1-23.8-78.1-47.8-117.3-71.5c-8.2-5-12.4-10.9-12.1-21.1c0.7-21.5,0.2-43.1,0.2-64.6C352.5,890.6,352,890.6,351.5,890.6z"/>
		<linearGradient id="SVGID_10_" gradientUnits="userSpaceOnUse" x1="255.1981" y1="1548.3806" x2="1304.0869" y2="748.3807">
			<stop  offset="0" style="stop-color:#1C6696"/>
			<stop  offset="1" style="stop-color:#4CFADF"/>
		</linearGradient>
		<path class="st9" d="M690.7,309.8c10.7,0,21.3-0.3,31.9,0.1c6.8,0.3,12.5-1.3,16.5-7c9.7-14,38.6-13.9,50.7-6.2
			c9,5.7,14,13.1,14,24.2c0,12.6-6,21.9-16.3,27.4c-14.1,7.5-29.2,8.2-44.1,1c-5.1-2.5-9.5-5.9-11.6-11c-2.6-6.2-7-7.3-13-7.3
			c-80.2-0.8-159,8.9-236.1,30.9c-51.4,14.7-100.6,34.6-145.8,63.5c-37.5,23.9-72.3,51.1-97.9,88.2c-43.2,62.6-45.4,131.3-1.5,194.8
			c25.2,36.5,58.7,63.2,96.2,86c32.4,19.7,64.7,39.5,97.3,58.9c25.6,15.2,51,30.6,76.5,45.9c3.6,2.2,6.9,2.5,10.6,0
			c20.9-14,37.9-9.3,49.7,13.4c4.6,8.8,5.8,18.2,4.6,27.8c-1.6,12.5-14,21-26.3,18.5c-16.3-3.4-27.5-14.6-30.3-31.5
			c-1-5.7-3.6-9-8.5-12c-36.1-21.5-72.2-42.9-108-64.9c-33.2-20.4-68.4-37.8-100.2-60.5c-34.9-24.9-66.2-53.5-87.2-91.8
			c-18.2-33.2-26.1-68.3-23.1-106.2c4-51.4,27.6-93,62.7-128.9c47.4-48.6,105.2-81,167.7-105.7c47.4-18.8,96.7-30.5,147-38.3
			C607.4,312.8,648.9,310.1,690.7,309.8z M526.9,918.7c0.1,12.5,7.2,23,17.5,25.8c7.7,2.2,12.2-0.3,14.1-7.9
			c2.7-11.3-1.5-20.2-10-27.6c-4.8-4.2-10-5.4-15.9-2.8C527.1,908.7,526.9,913.7,526.9,918.7z"/>
		<linearGradient id="SVGID_11_" gradientUnits="userSpaceOnUse" x1="255.1981" y1="1548.3806" x2="1304.0869" y2="748.3807">
			<stop  offset="0" style="stop-color:#1C6696"/>
			<stop  offset="1" style="stop-color:#4CFADF"/>
		</linearGradient>
		<path class="st10" d="M987.1,1624.7c1,24.2-1.6,51.7,1.5,79.2c0.2,1.6,0.1,3.3,0,4.9c-0.6,7.7-3.2,9.6-9.9,5.7
			c-15-8.8-29.8-18.2-44.7-27.2c-27.2-16.6-54.4-33.3-81.8-49.7c-5.5-3.3-7.8-7.6-7.8-14c0.2-41.7,0-83.5,0.1-125.2
			c0-10.3,2.9-13.1,13-13.7c3.5-0.2,7.3,0.3,10.5-0.8c14.9-5.2,27.2-0.8,39.7,7.8c22.2,15.2,45.2,29.6,68.1,43.8
			c8,5,11.7,10.8,11.4,20.6C986.7,1577.7,987.1,1599.5,987.1,1624.7z"/>
		<linearGradient id="SVGID_12_" gradientUnits="userSpaceOnUse" x1="255.1981" y1="1548.3806" x2="1304.0869" y2="748.3807">
			<stop  offset="0" style="stop-color:#1C6696"/>
			<stop  offset="1" style="stop-color:#4CFADF"/>
		</linearGradient>
		<path class="st11" d="M1801.5,626.8c-0.5,37.3-16.6,76.5-44.3,111.3c-26.3,33-60.1,56.7-95.8,78.3c-46,27.8-91.8,55.9-137.8,83.7
			c-12.8,7.7-26,15-39.3,22c-5.9,3.1-10.2,6.8-11.6,13.7c-1.9,9.5-7.5,16.8-14.8,23c-8.6,7.4-24.2,9-32.9,3.2
			c-7.8-5.2-12.1-19.9-9-30.4c2.7-9.3,6.5-17.9,13.6-24.8c13.3-13.1,27.6-13.5,40.8-0.5c4.2,4.1,7.2,1.9,10.8-0.2
			c23-13.7,46.1-27.2,68.9-41c43.9-26.6,88.2-52.4,131-80.7c35-23.1,64-51.5,83.5-89.1c23.1-44.5,24.1-89.1,4-134.8
			c-21.2-48.2-56.8-83.4-99.4-112.6c-36-24.7-75-43.2-115.3-59.7c-38.1-15.6-77.9-24.9-117.6-34.8c-4.9-1.2-8.6-0.4-12.6,3.2
			c-12.8,11.7-25.1,13-38.2,6.3c-15.6-8-18.8-23-13.3-38.5c5.7-15.8,21.3-23.2,37.2-18.5c9,2.6,14.4,9.8,18.6,17.5
			c2.6,4.6,5.9,6.8,10.7,7.6c58.6,9.6,114.2,29.2,167.9,53.8c41.3,18.9,80.2,41.6,114,72.8c29.3,27,54.2,56.7,68.2,94.6
			C1797.2,573.7,1801.5,596,1801.5,626.8z M1459.1,928.2c0.1-6.8-0.6-12.7-7.9-14.8c-7.1-2.2-12.3,0.9-16.1,6.5
			c-3.9,5.7-6.1,12.2-5.2,19.2c1.3,10,11.5,14.3,19.5,8.2C1455.8,942.5,1459.9,936.3,1459.1,928.2z"/>
		<linearGradient id="SVGID_13_" gradientUnits="userSpaceOnUse" x1="255.1981" y1="1548.3806" x2="1304.0869" y2="748.3807">
			<stop  offset="0" style="stop-color:#1C6696"/>
			<stop  offset="1" style="stop-color:#4CFADF"/>
		</linearGradient>
		<path class="st12" d="M780.7,1503.1c1,23.3-1.4,48.4,1.5,73.5c0.4,3.4,1.1,7.5-2.4,9.8c-3.9,2.5-7.2-0.5-10.6-2.2
			c-1.2-0.6-2.2-1.6-3.5-2.2c-12.2-6.1-17.7-13.8-13.8-29.1c4.4-17.7-4.1-33.8-15.3-47.5c-9.2-11.3-19.8-20.7-35.8-22.2
			c-17-1.6-32.1,7.8-36.6,24.4c-2,7.7-4,8.5-10.8,4.5c-4.5-2.6-8.7-5.8-13.5-7.6c-11.1-4.1-13.8-11.9-13.5-23.1
			c0.7-26.2,1.1-52.4-0.1-78.6c-0.9-18.8,2.2-37.6-0.9-56.3c-0.5-3-0.3-6.3,2.6-8.2c3.4-2.2,6.3-0.1,9,1.8
			c22.1,15.5,45.6,28.9,68.4,43.3c22.6,14.2,45.3,28.3,68.2,42.1c5.5,3.3,7.1,7.6,7,13.6C780.6,1459.9,780.7,1480.6,780.7,1503.1z"
			/>
		<linearGradient id="SVGID_14_" gradientUnits="userSpaceOnUse" x1="255.1981" y1="1548.3806" x2="1304.0869" y2="748.3807">
			<stop  offset="0" style="stop-color:#1C6696"/>
			<stop  offset="1" style="stop-color:#4CFADF"/>
		</linearGradient>
		<path class="st13" d="M1783.7,1358.2c-2.2-29.7-10.3-58.7-26.2-85.6c-21.9-37.1-53.3-64.5-89.7-86.5c-5.1-3.1-9.2-6.6-8.9-13.4
			c0.3-8.4,2.7-10.3,9.8-5.8c14.2,9.2,28.8,17.8,42,28.4c23.1,18.6,42.8,40.6,58.6,65.6c16.7,26.6,27.4,55.6,30.8,87.2
			c4.5,40.7-4.7,77.9-25.7,112.6c-25,41-60.2,71.4-100.4,96.7c-48,30.2-100,51.1-154.2,66.6c-40.2,11.5-80.9,20.2-122.8,22.9
			c-3,0.2-5.9,1-8.9,1.3c-9.8,1-18,2.5-24.6,12.4c-9.6,14.4-28.5,18.2-40.3,11.2c-15.3-9-19.9-30.3-9.8-45
			c11.1-16.1,31.7-19.8,46.1-5.8c9.2,9,18.2,9,28.8,7.3c43.4-7,86.7-14,128.8-27.1c63.7-19.8,124.6-45.1,177.6-86.8
			c29.5-23.2,54.5-50.3,71.6-84C1777.4,1408.2,1782.6,1384.3,1783.7,1358.2z"/>
		<linearGradient id="SVGID_15_" gradientUnits="userSpaceOnUse" x1="255.1981" y1="1548.3806" x2="1304.0869" y2="748.3807">
			<stop  offset="0" style="stop-color:#1C6696"/>
			<stop  offset="1" style="stop-color:#4CFADF"/>
		</linearGradient>
		<path class="st14" d="M579.5,1607.4c-14.7-0.8-24.9-7-30.7-19.1c-2.5-5.4-6-7.8-11.6-8.7c-42-6.4-82.6-17.4-122.3-32.7
			c-38.9-14.9-76-33.3-110.3-56.8c-36.1-24.7-68-54-90.8-91.8c-17.3-28.7-26.5-60.2-25.8-93.5c0.9-45.8,15.6-87.2,45.5-122.6
			c25.9-30.7,55.8-56.7,90-77.7c2.8-1.8,6.1-4.2,8.5-0.3c2.6,4.2,2.4,9.1-1.2,12.9c-2.2,2.3-5.2,3.9-7.9,5.7
			c-34.1,22.6-65.7,48.2-88.4,82.7c-31.7,48.2-38.5,99.6-15.7,153.5c9.9,23.3,24.1,44,41.1,62.6c43.2,47.1,97,77.9,155.5,101.6
			c38.8,15.7,78.9,27.1,120.1,34.8c7.2,1.4,12.6,0.7,18.7-4.2c20.7-16.2,47.7-6.8,53.2,18C611.4,1589.1,595.8,1607.9,579.5,1607.4z"
			/>
		<linearGradient id="SVGID_16_" gradientUnits="userSpaceOnUse" x1="255.1981" y1="1548.3806" x2="1304.0869" y2="748.3807">
			<stop  offset="0" style="stop-color:#1C6696"/>
			<stop  offset="1" style="stop-color:#4CFADF"/>
		</linearGradient>
		<path class="st15" d="M1639.3,914.8c-0.9,16.2,1.1,34.2-1.5,52.2c-0.8,5.4-3.2,8.7-7.8,11.5c-22.9,14.3-45.5,29-68.3,43.5
			c-9.7,6.1-19.6,11.8-29.5,17.6c-4.5,2.6-7.7,1.4-9.3-3.8c-9.2-29.2-29.3-45.6-59.5-49.8c-1.9-0.3-3.8-0.6-5.6-1.1
			c-5.3-1.4-5.6-4.3-1.6-7.3c20.5-15.2,38.6-33.3,61.3-46c36.6-20.5,72.2-42.8,108.2-64.4c1.6-1,3.2-2.1,4.9-2.9
			c6.2-2.8,8.5-1.5,8.6,5.4C1639.4,884.1,1639.3,898.6,1639.3,914.8z"/>
		<linearGradient id="SVGID_17_" gradientUnits="userSpaceOnUse" x1="255.1981" y1="1548.3806" x2="1304.0869" y2="748.3807">
			<stop  offset="0" style="stop-color:#1C6696"/>
			<stop  offset="1" style="stop-color:#4CFADF"/>
		</linearGradient>
		<path class="st16" d="M177.8,912.8c-0.8-11.8,3.7-22,15-27.2c12-5.5,23.6-2.1,33.5,6.2c9.5,8,14.3,18.7,15,30.8
			c0.4,6.9,3,11.2,8.5,14.6c23.2,14.4,46.2,29,69.5,43.3c19.3,11.9,38.7,23.4,58,35.2c37.3,22.7,74.5,45.4,111.8,68.2
			c2.1,1.3,4.4,2.3,6.2,3.9c8,7.1,15.7,8.5,25.5,2.2c9.1-5.8,18-0.8,25.8,4.7c15.9,11.1,21.2,35.2,11,49.3
			c-7.1,9.8-18.1,12.1-28.9,6.4c-13-6.8-19.1-18.3-21.5-32.1c-1.1-6.8-4.4-11-10.3-14.6c-63-38.6-126.6-76.4-190.1-114.2
			c-20.1-12-39.8-24.8-59.5-37.5c-5.8-3.7-10.3-4.6-15.6,1.5c-5.8,6.7-21.6,7-30.7,1C186.4,945,177.1,931.8,177.8,912.8z
			 M531.1,1102.8c-4.6-0.2-7.8,1.9-10,5.7c-6.7,11.6,3.9,31,17.2,31.6c4.4,0.2,8.1-1.4,10.4-5.3c4-6.6,2.6-13.2-1-19.4
			C544,1109,539.7,1102.9,531.1,1102.8z"/>
		<linearGradient id="SVGID_18_" gradientUnits="userSpaceOnUse" x1="255.1981" y1="1548.3806" x2="1304.0869" y2="748.3807">
			<stop  offset="0" style="stop-color:#1C6696"/>
			<stop  offset="1" style="stop-color:#4CFADF"/>
		</linearGradient>
		<path class="st17" d="M805.3,1514c0-10,0-17.4,0-24.8c0-5.6,2.6-8.8,8.3-8.9c6.3-0.1,4.8,4.9,4.8,8.4c0.4,17.7,0.5,35.4,1.2,53.1
			c0.9,20.3-0.8,40.7-1,61.1c-0.1,10.3,1.2,20.7,1.2,31c0.1,48.2,0.2,96.5-0.1,144.7c0,8.5,2.5,13.8,9.6,19
			c12.1,8.8,18.4,21.5,16.7,36.9c-2.8,25.2-30.5,35.7-52.5,20.7c-21-14.4-24.7-50.4,4.2-62.4c5.3-2.2,7.6-6.5,7.6-12.4
			c-0.1-70.7,0.7-141.3-0.7-212C804.3,1549.4,806.5,1530.4,805.3,1514z"/>
		<linearGradient id="SVGID_19_" gradientUnits="userSpaceOnUse" x1="255.1981" y1="1548.3806" x2="1304.0869" y2="748.3807">
			<stop  offset="0" style="stop-color:#1C6696"/>
			<stop  offset="1" style="stop-color:#4CFADF"/>
		</linearGradient>
		<path class="st18" d="M1815,919.8c0.2,23.4-18.9,45.2-39.5,45.3c-7.6,0-14.7-1.7-19.8-7.9c-3.4-4.2-6.5-2.5-9.9-0.3
			c-22.1,14-44,28.3-66.3,42c-52.1,31.9-104.3,63.4-156.5,95.1c-2,1.2-4.2,3.6-6.6,1.7c-2.6-2-1.5-4.9-0.5-7.5
			c3.1-7.9,8.5-13.9,15.9-18.1c35.9-20.2,70.2-42.9,105.4-64.3c31.6-19.3,63.1-38.9,94.7-58.4c3.7-2.3,7.1-5.1,10.8-7.3
			c4.8-2.8,6-7,6.4-12.3c1.5-16.9,10.8-29.2,25.7-36.2C1795.2,882.1,1814.9,896.3,1815,919.8z"/>
		<linearGradient id="SVGID_20_" gradientUnits="userSpaceOnUse" x1="255.1981" y1="1548.3806" x2="1304.0869" y2="748.3807">
			<stop  offset="0" style="stop-color:#1C6696"/>
			<stop  offset="1" style="stop-color:#4CFADF"/>
		</linearGradient>
		<path class="st19" d="M730,1539.5c0,15.2-11.2,25.2-26,22.8c-5.2-0.8-8.9,0.4-12.4,4c-8.9,9.1-17.9,18.2-27.1,27.1
			c-4.1,3.9-8.2,8.2-14.3,8.9c-4.4,0.5-9.2,0.5-11.1-4.6c-1.9-5-0.9-9.6,3.8-13c8.1-6,17.7-9.5,25.7-15.9c10-8,17.7-15.6,14.6-30.7
			c-2.7-13,10-26.7,22.4-27.2C718.2,1510.4,730,1524.1,730,1539.5z"/>
		<linearGradient id="SVGID_21_" gradientUnits="userSpaceOnUse" x1="255.1981" y1="1548.3806" x2="1304.0869" y2="748.3807">
			<stop  offset="0" style="stop-color:#1C6696"/>
			<stop  offset="1" style="stop-color:#4CFADF"/>
		</linearGradient>
		<path class="st20" d="M1206.7,1606.9c0.1,4.4,0,8.7-1.8,12.9c-1.5,3.7-4.3,5.4-8.2,5.6c-3.9,0.2-6.8-1.2-8.8-4.7
			c-4.2-7.5-2.8-24.2,2.9-30.4c5.3-5.9,12-4.5,14.3,2.9C1206.6,1597.6,1206.8,1602.2,1206.7,1606.9z"/>
		<linearGradient id="SVGID_22_" gradientUnits="userSpaceOnUse" x1="255.1981" y1="1548.3806" x2="1304.0869" y2="748.3807">
			<stop  offset="0" style="stop-color:#1C6696"/>
			<stop  offset="1" style="stop-color:#4CFADF"/>
		</linearGradient>
		<path class="st21" d="M979,1076.9c-0.1,20.3-16,34.3-34.8,35c-19.4,0.7-35.7-16.7-35.6-36.3c0.1-19.5,15.5-35.1,34.5-35
			C963.8,1040.6,979.1,1056.1,979,1076.9z"/>
	</g>
</g>
</svg>
